<?xml version="1.0" encoding="utf-8"?>
<!-- Generator: Adobe Illustrator 24.2.0, SVG Export Plug-In . SVG Version: 6.00 Build 0)  -->
<svg version="1.1" id="Capa_1" xmlns="http://www.w3.org/2000/svg" xmlns:xlink="http://www.w3.org/1999/xlink" x="0px" y="0px"
	 viewBox="0 0 300.6 256" style="enable-background:new 0 0 300.6 256;" xml:space="preserve">
<style type="text/css">
	.st0{fill:#FFFFFF;}
	.st1{fill:#FFFDFD;}
</style>
<g>
	<rect y="57.1" class="st0" width="300.3" height="101.2"/>
	<rect y="170.7" class="st0" width="300.3" height="86"/>
	<rect class="st0" width="114.3" height="45.2"/>
	<path d="M263.6,140.1h25.8l-27-35.3L288.2,77h-23.6l-21.1,22.9V77h-21.3v62.3h21.3v-15.2l4.4-5.3L263.6,140.1z M187.8,141.2
		c6.1,0,11.6-1.1,16.4-3.3c4.8-2.1,8.8-5.2,11.9-9.3l-13.4-12c-3.9,4.9-8.5,7.4-13.8,7.4c-4.4,0-8-1.4-10.7-4.3
		c-2.7-2.9-4-6.6-4-11.5c0-4.8,1.3-8.6,4-11.5c2.7-2.9,6.3-4.3,10.7-4.3c5.2,0,9.9,2.5,13.8,7.4l13.4-12c-3.1-4.1-7-7.2-11.9-9.3
		c-4.8-2.1-10.2-3.3-16.4-3.3c-6.6,0-12.7,1.4-18,4.2c-5.3,2.8-9.5,6.7-12.5,11.7c-3,5-4.6,10.7-4.6,17c0,6.4,1.6,12,4.6,17
		c3,5,7.2,8.9,12.5,11.7C175.1,139.8,181.2,141.2,187.8,141.2 M108.4,113.9l6.1-15.8l6.1,15.8H108.4z M130.2,139.3h22L125,77h-20.7
		l-27.2,62.3h21.7l4.1-10.7h23.2L130.2,139.3z M51.7,77v22.1H32V77H10.7v62.3H32v-23h19.7v23.8H73V77H51.7z"/>
	<path d="M88.5,14.6v5l9,3.1l-9,3v5l15.1-5.5v-5.2L88.5,14.6z M85.4,14.6l-15.1,5.5v5.2l15.1,5.5v-5l-9-3.1l9-3.1V14.6z M54.1,35.8
		H60l9.7-27.6h-5.9L54.1,35.8z M38.3,14.6v5l9,3.1l-9,3v5l15.1-5.5v-5.2L38.3,14.6z M22.7,24.5h-2.9l0.4-3.8h2.9L22.7,24.5z
		 M32,20.7v-4.4h-3.6l0.5-3.8h-4.7l-0.5,3.8h-2.9l0.5-3.8h-4.7l-0.5,3.8h-4.2v4.4h3.5L15,24.5h-4.3v4.4h3.6l-0.4,3.8h4.7l0.5-3.8
		h2.9l-0.5,3.8h4.7l0.5-3.8h4.1v-4.4h-3.4l0.4-3.8H32z"/>
	<path d="M267.2,239.3c4.8,0,8.9-0.8,12.3-2.2c3.4-1.4,5.9-3.4,7.6-5.8c1.7-2.4,2.6-5.2,2.6-8.2c0-3.5-0.9-6.3-2.8-8.3
		c-1.9-2-4.1-3.5-6.6-4.4c-2.5-0.9-5.6-1.7-9.3-2.4c-2.8-0.6-4.9-1.1-6.2-1.6c-1.3-0.5-1.9-1.2-1.9-2.2c0-2,2.1-3,6.3-3
		c4.2,0,8.7,1.2,13.4,3.6l4.9-11.8c-2.4-1.4-5.3-2.4-8.5-3.1s-6.5-1.1-9.8-1.1c-4.8,0-8.9,0.7-12.3,2.1c-3.4,1.4-5.9,3.4-7.6,5.8
		c-1.7,2.5-2.6,5.3-2.6,8.3c0,3.5,0.9,6.3,2.8,8.3c1.8,2.1,4,3.5,6.5,4.4c2.5,0.9,5.6,1.8,9.3,2.5c2.9,0.6,5,1.1,6.2,1.6
		s1.9,1.3,1.9,2.3c0,0.9-0.5,1.5-1.4,1.9c-0.9,0.4-2.6,0.6-4.8,0.6c-2.6,0-5.3-0.4-8.2-1.2c-2.8-0.8-5.4-1.9-7.7-3.2l-5.3,11.9
		c2.4,1.5,5.5,2.7,9.4,3.6C259.3,238.9,263.2,239.3,267.2,239.3"/>
	<path d="M221.9,239.3c4.8,0,8.9-0.8,12.3-2.2c3.4-1.4,5.9-3.4,7.6-5.8c1.7-2.4,2.6-5.2,2.6-8.2c0-3.5-0.9-6.3-2.8-8.3
		c-1.9-2-4.1-3.5-6.6-4.4c-2.5-0.9-5.6-1.7-9.3-2.4c-2.8-0.6-4.9-1.1-6.2-1.6s-1.9-1.2-1.9-2.2c0-2,2.1-3,6.3-3s8.7,1.2,13.4,3.6
		l4.9-11.8c-2.4-1.4-5.3-2.4-8.5-3.1c-3.2-0.7-6.5-1.1-9.8-1.1c-4.8,0-8.9,0.7-12.3,2.1c-3.4,1.4-5.9,3.4-7.6,5.8
		c-1.7,2.5-2.6,5.3-2.6,8.3c0,3.5,0.9,6.3,2.8,8.3c1.8,2.1,4,3.5,6.5,4.4c2.5,0.9,5.6,1.8,9.3,2.5c2.9,0.6,5,1.1,6.2,1.6
		s1.9,1.3,1.9,2.3c0,0.9-0.5,1.5-1.4,1.9c-0.9,0.4-2.6,0.6-4.8,0.6c-2.6,0-5.3-0.4-8.2-1.2c-2.8-0.8-5.4-1.9-7.7-3.2l-5.3,11.9
		c2.4,1.5,5.5,2.7,9.4,3.6C213.9,238.9,217.9,239.3,221.9,239.3"/>
	<path d="M170.7,239.3c5.2,0,9.9-1.1,14-3.3c4.1-2.1,7.4-5.1,9.7-9c2.3-3.8,3.5-8.2,3.5-13s-1.2-9.2-3.5-13c-2.3-3.8-5.6-6.8-9.7-9
		s-8.8-3.3-14-3.3s-9.9,1.1-14,3.3c-4.1,2.1-7.4,5.1-9.7,9c-2.3,3.8-3.5,8.2-3.5,13s1.2,9.2,3.5,13c2.3,3.8,5.6,6.8,9.7,9
		C160.8,238.3,165.5,239.3,170.7,239.3"/>
	<path class="st1" d="M170.7,226.1c-2,0-3.8-0.5-5.5-1.5c-1.6-1-3-2.4-3.9-4.2c-0.9-1.8-1.4-4-1.4-6.4c0-2.4,0.5-4.6,1.4-6.4
		c0.9-1.8,2.3-3.2,3.9-4.2c1.6-1,3.5-1.5,5.5-1.5s3.8,0.5,5.5,1.5c1.6,1,3,2.4,3.9,4.2c0.9,1.8,1.4,4,1.4,6.4c0,2.4-0.5,4.6-1.4,6.4
		c-0.9,1.8-2.3,3.2-3.9,4.2C174.5,225.7,172.7,226.1,170.7,226.1"/>
	<path d="M130.9,213.2c2.2-1.1,3.9-2.6,5-4.3c1.1-1.8,1.7-3.8,1.7-6.1c0-3.8-1.6-6.9-5-9.2c-3.3-2.3-8.2-3.5-14.6-3.5H92.2v48.3
		h27.2c6.7,0,11.7-1.2,15.2-3.5c3.5-2.3,5.3-5.6,5.3-9.9c0-2.8-0.8-5.3-2.3-7.4C136,215.8,133.8,214.2,130.9,213.2"/>
	<path class="st1" d="M117.3,226.6h-9.4V219h9.7c3.5,0,5.4,1.2,5.4,3.7c0,2.6-1.8,3.8-5.4,3.8"/>
	<path class="st1" d="M115.2,201.5c3.4,0,5.1,1.2,5.1,3.5s-1.7,3.5-5.1,3.5h-7.3v-6.9H115.2z"/>
	<polygon points="51.5,237.9 68.3,237.9 47.5,190.2 31.7,190.2 10.8,237.9 27.4,237.9 30.6,229.7 48.4,229.7 	"/>
	<polygon class="st1" points="34.8,218.4 39.5,206.3 44.2,218.4 	"/>
</g>
</svg>
